<svg width="68" height="32" viewBox="0 0 68 32" fill="none" xmlns="http://www.w3.org/2000/svg">
<g clip-path="url(#clip0)">
<path d="M5.86543 11.1765H5.90775C6.88122 9.39165 8.57421 8.62671 10.5635 8.62671H11.5369V13.5563C10.8174 13.1739 10.1402 13.0889 9.37838 13.0889C6.54262 13.0889 5.8231 14.9587 5.8231 17.466V23.2881H0.744141V8.7967H5.86543V11.1765Z" fill="#373744"/>
<path d="M19.3244 8.79688H14.2031V23.2882H19.3244V8.79688Z" fill="#373744"/>
<path d="M28.2971 10.4542H28.3394C29.2705 9.00929 31.0058 8.32935 32.6988 8.32935C37.016 8.32935 39.9787 11.9416 39.9787 16.1062C39.9787 20.2709 37.016 23.7981 32.7412 23.7981C31.0905 23.7981 29.3552 23.2032 28.2547 21.9283V29.8752L23.1758 32V8.79681H28.2971V10.4542ZM28.1278 16.0637C28.1278 17.8911 29.3552 19.2935 31.4291 19.2935C33.503 19.2935 34.7304 17.8911 34.7304 16.0637C34.7304 14.2789 33.503 12.7915 31.4291 12.7915C29.3129 12.7915 28.1278 14.2789 28.1278 16.0637Z" fill="#373744"/>
<path d="M47.8088 8.79688H42.6875V23.2882H47.8088V8.79688Z" fill="#373744"/>
<path d="M67.7437 16.0637C67.7437 20.9934 63.6806 23.7556 59.0672 23.7556C54.4538 23.7556 50.3906 20.9934 50.3906 16.0637C50.3906 11.1341 54.4538 8.32935 59.0672 8.32935C63.7229 8.32935 67.7437 11.1341 67.7437 16.0637ZM55.8082 16.0637C55.8082 17.8911 57.0356 19.2935 59.1095 19.2935C61.1834 19.2935 62.4108 17.8911 62.4108 16.0637C62.4108 14.2789 61.1834 12.7915 59.1095 12.7915C56.9933 12.7915 55.8082 14.2789 55.8082 16.0637Z" fill="#373744"/>
<path d="M19.3244 4.80212L14.3301 6.79947V2.03984L19.3244 0V4.80212Z" fill="#373744"/>
<path d="M47.7668 4.80212L42.7725 6.79947V2.03984L47.7668 0V4.80212Z" fill="#373744"/>
</g>
<defs>
<clipPath id="clip0">
<rect width="67" height="32" fill="white" transform="translate(0.744141)"/>
</clipPath>
</defs>
</svg>
